<svg width="56" height="56" viewBox="0 0 56 56" fill="none" xmlns="http://www.w3.org/2000/svg">
<path d="M56 28C56 43.464 43.464 56 28 56C12.536 56 0 43.464 0 28C0 12.536 12.536 0 28 0C43.464 0 56 12.536 56 28ZM4.11434 28C4.11434 41.1917 14.8083 51.8857 28 51.8857C41.1917 51.8857 51.8857 41.1917 51.8857 28C51.8857 14.8083 41.1917 4.11434 28 4.11434C14.8083 4.11434 4.11434 14.8083 4.11434 28Z" fill="#3F3F46"/>
<path d="M56 28C56 22.6924 54.4914 17.4941 51.6502 13.011C48.8089 8.52798 44.752 4.9448 39.9522 2.67917C35.1525 0.41354 29.8076 -0.441222 24.5407 0.214515C19.2737 0.870252 14.3017 3.00948 10.204 6.38284L12.8263 9.56822C16.3202 6.69193 20.5596 4.86793 25.0504 4.30882C29.5413 3.7497 34.0985 4.47851 38.191 6.41029C42.2835 8.34208 45.7426 11.3973 48.1652 15.2197C50.5878 19.0422 51.8741 23.4745 51.8741 28H56Z" fill="white"/>
</svg>
